<svg width="100%" height="100%" viewBox="0 0 306 305" fill="none" xmlns="http://www.w3.org/2000/svg">
<path d="M53.8747 271.158C53.7635 271.16 53.6542 271.128 53.5615 271.066C53.469 271.005 53.3975 270.916 53.3565 270.812C53.3241 270.743 53.3065 270.667 53.3051 270.591C53.3037 270.515 53.3184 270.438 53.3483 270.367C53.3781 270.297 53.4225 270.234 53.4784 270.181C53.5344 270.129 53.6007 270.089 53.6732 270.064L283.453 171.253C283.594 171.196 283.752 171.198 283.893 171.257C284.033 171.316 284.144 171.429 284.201 171.571C284.26 171.708 284.263 171.863 284.209 172.003C284.155 172.143 284.049 172.256 283.913 172.319L54.1051 271.129L53.8747 271.158Z" fill="#282928"/>
<path d="M75.497 273.375C75.3865 273.374 75.279 273.34 75.1871 273.278C75.0952 273.217 75.0228 273.131 74.9787 273.03C74.9455 272.962 74.9267 272.889 74.9234 272.814C74.9201 272.739 74.9323 272.663 74.9594 272.593C74.9864 272.523 75.0276 272.459 75.0804 272.405C75.1333 272.351 75.1967 272.31 75.2666 272.281L273.29 185.391C273.359 185.357 273.435 185.338 273.513 185.335C273.59 185.331 273.667 185.343 273.739 185.369C273.813 185.397 273.879 185.437 273.935 185.49C273.991 185.544 274.036 185.607 274.067 185.678C274.099 185.748 274.118 185.824 274.119 185.9C274.12 185.976 274.105 186.053 274.076 186.124C274.045 186.194 274.002 186.258 273.945 186.31C273.889 186.363 273.823 186.402 273.751 186.427L75.7272 273.318L75.497 273.375Z" fill="#282928"/>
<path d="M266.581 69.1042H266.495L253.913 67.4632C253.829 67.468 253.744 67.4541 253.666 67.4227C253.587 67.3912 253.517 67.3428 253.459 67.2809C253.401 67.219 253.358 67.1452 253.332 67.0647C253.306 66.9842 253.298 66.8989 253.309 66.8151C253.32 66.7312 253.349 66.6507 253.395 66.5793C253.439 66.5079 253.5 66.4474 253.572 66.4021C253.643 66.3568 253.723 66.3278 253.808 66.3171C253.892 66.3064 253.976 66.3144 254.058 66.3403L266.639 67.9526C266.715 67.9631 266.787 67.9887 266.853 68.028C266.919 68.0671 266.977 68.119 267.023 68.1808C267.068 68.2424 267.101 68.3126 267.12 68.3871C267.137 68.4617 267.14 68.539 267.128 68.6148C267.114 68.7497 267.05 68.8744 266.949 68.9649C266.848 69.0553 266.717 69.105 266.581 69.1042Z" fill="#ECDAFF"/>
<path d="M172.522 114.219C172.388 114.228 172.256 114.191 172.147 114.112C172.038 114.034 171.96 113.92 171.925 113.791C171.892 113.661 171.904 113.524 171.96 113.403C172.016 113.281 172.113 113.182 172.234 113.125C172.321 113.096 179.173 109.325 180.094 104.92C180.382 103.567 180.036 102.3 179.087 101.09C178.136 99.8812 176.61 98.7871 175.315 98.9311C172.291 99.2189 169.931 103.883 169.931 103.941C169.862 104.078 169.741 104.183 169.596 104.231C169.45 104.28 169.291 104.268 169.154 104.2C169.017 104.131 168.912 104.011 168.863 103.864C168.814 103.719 168.825 103.559 168.895 103.422C169.009 103.192 171.571 98.1537 175.2 97.7794C176.898 97.6067 178.51 98.4704 180.008 100.371C180.558 101.024 180.952 101.794 181.162 102.621C181.371 103.449 181.39 104.314 181.217 105.15C180.209 110.073 173.097 113.988 172.781 114.133C172.705 114.187 172.616 114.217 172.522 114.219Z" fill="#282928"/>
<path d="M105.094 240.697C104.987 240.695 104.883 240.664 104.792 240.608C104.701 240.553 104.626 240.474 104.576 240.38C104.542 240.312 104.52 240.238 104.515 240.162C104.509 240.087 104.519 240.01 104.543 239.937C104.567 239.865 104.606 239.799 104.655 239.741C104.705 239.684 104.766 239.636 104.834 239.603C105.152 239.43 137.599 222.962 142.062 218.039C142.11 217.981 142.171 217.935 142.24 217.901C142.308 217.868 142.382 217.85 142.458 217.847C142.533 217.844 142.61 217.857 142.68 217.886C142.75 217.913 142.814 217.956 142.868 218.01C142.981 218.109 143.051 218.251 143.061 218.401C143.072 218.552 143.023 218.701 142.925 218.816C138.29 223.883 106.706 239.948 105.353 240.64L105.094 240.697Z" fill="#282928"/>
<path d="M68.9037 172.895C68.0646 172.883 67.25 172.611 66.5715 172.117C66.1279 171.788 65.7579 171.369 65.4852 170.888C65.2126 170.407 65.0432 169.875 64.9881 169.325L58.4238 103.048C58.3157 101.924 58.6439 100.8 59.3405 99.911C60.0371 99.0215 61.0488 98.4336 62.1666 98.2689L147.301 86.292L147.445 87.4148L62.3394 99.4206C61.511 99.5287 60.7578 99.9568 60.2412 100.613C59.7246 101.27 59.4856 102.103 59.5755 102.933L66.1398 169.21C66.1757 169.599 66.2939 169.977 66.4868 170.318C66.6796 170.658 66.9426 170.954 67.2583 171.185C67.5741 171.417 67.9354 171.579 68.3183 171.66C68.7012 171.741 69.0969 171.74 69.4794 171.657L140.363 156.571L140.593 157.693L69.7386 172.809C69.464 172.866 69.1842 172.894 68.9037 172.895Z" fill="#282928"/>
<path d="M165.102 136.497L163.978 136.748L165.233 142.362L166.357 142.111L165.102 136.497Z" fill="#282928"/>
<path d="M164.719 147.559L74.3164 166.935C73.7708 167.055 73.2059 167.059 72.6587 166.948C72.1113 166.835 71.5939 166.608 71.1402 166.282C70.6864 165.956 70.3066 165.537 70.0254 165.055C69.7442 164.573 69.568 164.036 69.5082 163.48L63.7501 106.993C63.6083 106.089 63.8277 105.165 64.361 104.422C64.8944 103.678 65.6988 103.174 66.6004 103.02L156.111 90.0058C157.983 89.6891 158.443 89.1709 158.759 91.0423L167.57 143.586C167.644 144.034 167.629 144.491 167.526 144.934C167.422 145.377 167.233 145.794 166.968 146.163C166.704 146.532 166.369 146.845 165.983 147.085C165.597 147.324 165.168 147.485 164.719 147.559Z" fill="#ECDAFF"/>
<path d="M97.7235 204.536C97.6435 204.539 97.5637 204.525 97.4893 204.496C97.4149 204.466 97.3476 204.42 97.2916 204.364L66.8597 172.291C66.7579 172.179 66.704 172.033 66.7094 171.882C66.7147 171.731 66.7791 171.588 66.8885 171.485C66.9397 171.429 67.0021 171.384 67.0714 171.353C67.1408 171.323 67.2158 171.308 67.2916 171.308C67.3673 171.308 67.4424 171.323 67.5117 171.353C67.5811 171.384 67.6435 171.429 67.6947 171.485L98.1266 203.557C98.1806 203.61 98.2231 203.674 98.2511 203.745C98.2792 203.816 98.2922 203.891 98.2896 203.967C98.2868 204.042 98.2684 204.117 98.2354 204.186C98.2023 204.254 98.1555 204.315 98.0977 204.364C98.0531 204.419 97.996 204.464 97.931 204.494C97.866 204.524 97.795 204.538 97.7235 204.536Z" fill="#282928"/>
<path d="M104.058 201.802C103.981 201.804 103.906 201.789 103.837 201.76C103.767 201.729 103.705 201.685 103.654 201.629L77.4259 175.371C77.3699 175.321 77.3254 175.258 77.2949 175.188C77.2643 175.119 77.2487 175.044 77.2487 174.969C77.2487 174.893 77.2643 174.817 77.2949 174.748C77.3254 174.679 77.3699 174.617 77.4259 174.565C77.5383 174.458 77.6878 174.398 77.8433 174.398C77.9988 174.398 78.1483 174.458 78.2607 174.565L104.46 200.823C104.516 200.873 104.561 200.936 104.591 201.006C104.622 201.075 104.637 201.15 104.637 201.225C104.637 201.301 104.622 201.377 104.591 201.446C104.561 201.515 104.516 201.577 104.46 201.629C104.355 201.738 104.209 201.8 104.058 201.802Z" fill="#282928"/>
<path d="M105.208 195.524C105.063 195.52 104.922 195.471 104.806 195.381L84.8538 175.659C84.7109 175.514 84.6089 175.333 84.5583 175.136C84.5077 174.939 84.5104 174.732 84.5659 174.536C84.6184 174.338 84.724 174.159 84.8712 174.017C85.0183 173.875 85.2014 173.776 85.4009 173.73L127.263 163.941C127.339 163.904 127.423 163.886 127.507 163.885C127.592 163.885 127.676 163.903 127.753 163.939C127.83 163.974 127.897 164.026 127.952 164.091C128.006 164.156 128.046 164.232 128.067 164.314C128.09 164.396 128.093 164.482 128.077 164.565C128.062 164.648 128.029 164.728 127.979 164.797C127.929 164.865 127.865 164.922 127.792 164.963C127.717 165.005 127.635 165.03 127.551 165.035L85.6599 174.853L105.612 194.545C105.691 194.626 105.744 194.728 105.766 194.838C105.788 194.949 105.776 195.064 105.733 195.168C105.69 195.272 105.618 195.362 105.525 195.425C105.431 195.489 105.321 195.523 105.208 195.524Z" fill="#282928"/>
<path d="M111.083 193.164C110.93 193.162 110.786 193.1 110.679 192.991L91.0152 173.413C90.9321 173.302 90.8917 173.165 90.9015 173.026C90.9113 172.888 90.9707 172.758 91.0687 172.66C91.1667 172.563 91.2968 172.503 91.435 172.494C91.5733 172.484 91.7105 172.524 91.8213 172.607L111.514 192.185C111.613 192.295 111.668 192.439 111.668 192.588C111.668 192.737 111.613 192.88 111.514 192.991C111.458 193.048 111.391 193.093 111.317 193.123C111.242 193.152 111.162 193.167 111.083 193.164Z" fill="#282928"/>
<path d="M108.98 183.058C108.829 183.056 108.684 182.994 108.578 182.885L97.6084 171.945C97.5424 171.895 97.4878 171.832 97.4484 171.76C97.4088 171.687 97.3853 171.607 97.3795 171.525C97.3736 171.442 97.3855 171.36 97.4144 171.283C97.4433 171.206 97.4884 171.135 97.5467 171.076C97.605 171.019 97.6753 170.974 97.7525 170.944C97.8298 170.916 97.9124 170.904 97.9947 170.91C98.077 170.916 98.1571 170.939 98.2295 170.979C98.3019 171.019 98.365 171.072 98.4145 171.138L109.412 182.05C109.508 182.168 109.561 182.316 109.561 182.468C109.561 182.62 109.508 182.767 109.412 182.885C109.357 182.943 109.289 182.988 109.215 183.017C109.141 183.047 109.061 183.061 108.98 183.058Z" fill="#282928"/>
<path d="M115.603 173.586C115.45 173.584 115.306 173.522 115.199 173.413L110.536 168.778C110.428 168.665 110.368 168.516 110.368 168.36C110.368 168.205 110.428 168.055 110.536 167.944C110.647 167.844 110.79 167.789 110.939 167.789C111.087 167.789 111.23 167.844 111.342 167.944L116.006 172.607C116.061 172.659 116.106 172.721 116.137 172.79C116.167 172.86 116.182 172.934 116.182 173.011C116.182 173.086 116.167 173.161 116.137 173.23C116.106 173.3 116.061 173.362 116.006 173.413C115.956 173.47 115.893 173.515 115.824 173.544C115.753 173.575 115.678 173.589 115.603 173.586Z" fill="#282928"/>
<path d="M116.437 182.453C116.291 182.449 116.15 182.399 116.034 182.31L104.287 170.851C104.233 170.798 104.189 170.735 104.158 170.665C104.128 170.595 104.112 170.52 104.111 170.443C104.109 170.367 104.123 170.292 104.15 170.221C104.179 170.15 104.22 170.086 104.273 170.031C104.326 169.976 104.389 169.932 104.459 169.901C104.528 169.871 104.604 169.855 104.68 169.854C104.756 169.852 104.832 169.866 104.904 169.893C104.974 169.922 105.039 169.964 105.094 170.016L116.84 181.475C116.896 181.526 116.941 181.588 116.971 181.658C117.002 181.727 117.017 181.803 117.017 181.878C117.017 181.954 117.002 182.028 116.971 182.098C116.941 182.168 116.896 182.23 116.84 182.281C116.733 182.389 116.589 182.451 116.437 182.453Z" fill="#282928"/>
<path d="M150.64 75.8701C150.64 75.8701 146.034 93.0294 142.983 98.1255C139.931 103.221 135.065 110.102 144.71 111.801C144.71 111.801 151.764 132.415 161.207 134.747C161.574 134.845 161.912 135.029 162.193 135.284C162.473 135.54 162.689 135.859 162.819 136.215C163.539 138.058 164.691 141.455 164.604 143.471C164.46 146.35 191.696 131.897 191.696 131.897L179.345 83.5861L150.64 75.8701Z" fill="white"/>
<path d="M165.151 144.421C164.9 144.438 164.649 144.378 164.431 144.248C164.294 144.167 164.183 144.048 164.112 143.904C164.041 143.761 164.011 143.601 164.029 143.442C164.115 141.513 162.992 138.231 162.301 136.418C162.197 136.15 162.029 135.911 161.814 135.721C161.599 135.531 161.342 135.395 161.063 135.323C151.995 133.048 145.257 115.026 144.278 112.29C141.37 111.743 139.585 110.649 138.837 108.98C137.484 106.043 139.873 102.156 141.946 98.73L142.493 97.8087C145.488 92.8568 150.036 75.899 150.065 75.7262L150.238 75.1504L179.835 83.1254L179.921 83.4421L192.359 132.214L191.956 132.415C191.899 132.445 185.68 135.755 179.259 138.835C169.499 143.558 166.332 144.421 165.151 144.421ZM165.181 143.298H165.267C167.57 143.298 179.835 137.54 191.035 131.609L178.885 84.0467L151.044 76.5611C150.209 79.6129 146.265 93.7781 143.501 98.4133C143.299 98.7013 143.127 99.018 142.954 99.3059C141.083 102.357 138.808 106.129 139.873 108.519C140.478 109.843 142.148 110.765 144.825 111.226L145.142 111.283L145.257 111.6C145.315 111.801 152.311 131.955 161.351 134.2C161.809 134.316 162.232 134.542 162.583 134.858C162.935 135.174 163.203 135.571 163.367 136.014C164.057 137.828 165.209 141.139 165.181 143.298Z" fill="#282928"/>
<path d="M89.8056 179.92C89.6529 179.935 89.5004 179.889 89.3815 179.792C89.2628 179.695 89.1874 179.555 89.1722 179.402C89.1569 179.249 89.2029 179.096 89.3001 178.978C89.3973 178.859 89.5377 178.784 89.6904 178.769L129.451 169.066C129.528 169.028 129.614 169.009 129.699 169.009C129.785 169.008 129.871 169.027 129.948 169.064C130.026 169.101 130.095 169.155 130.149 169.222C130.203 169.289 130.242 169.368 130.261 169.451C130.282 169.535 130.283 169.623 130.264 169.707C130.246 169.791 130.208 169.87 130.156 169.938C130.103 170.006 130.035 170.061 129.958 170.1C129.881 170.138 129.796 170.159 129.709 170.16L89.9495 179.891L89.8056 179.92Z" fill="#282928"/>
<path d="M154.289 95.4194C155.22 95.3018 155.827 94.0427 155.646 92.6072C155.464 91.1716 154.564 90.1031 153.632 90.2208C152.702 90.3383 152.094 91.5974 152.276 93.033C152.457 94.4685 153.359 95.5369 154.289 95.4194Z" fill="#282928"/>
<path d="M160.832 86.2924H160.689L151.937 84.3059C151.843 84.2854 151.756 84.2469 151.677 84.1923C151.6 84.1378 151.534 84.0684 151.483 83.9881C151.431 83.9077 151.398 83.8182 151.381 83.7244C151.365 83.6308 151.368 83.5348 151.39 83.4422C151.41 83.3493 151.449 83.2614 151.502 83.1837C151.557 83.1058 151.626 83.0395 151.707 82.9887C151.787 82.9378 151.877 82.9034 151.97 82.8873C152.065 82.8712 152.16 82.8739 152.253 82.8951L161.005 84.8817C161.098 84.9021 161.186 84.9407 161.263 84.9953C161.342 85.0499 161.408 85.1193 161.459 85.1996C161.509 85.2798 161.544 85.3695 161.56 85.4631C161.577 85.5569 161.574 85.6527 161.552 85.7455C161.508 85.9026 161.414 86.0411 161.284 86.1398C161.155 86.2386 160.996 86.2922 160.832 86.2924Z" fill="#282928"/>
<path d="M154.959 121.965C154.859 121.969 154.759 121.944 154.671 121.893C154.585 121.842 154.515 121.766 154.47 121.676C154.393 121.55 154.368 121.397 154.4 121.253C154.433 121.108 154.519 120.982 154.643 120.899C157.004 119.43 158.588 114.248 158.616 114.19C158.633 114.113 158.667 114.04 158.714 113.975C158.761 113.911 158.821 113.857 158.891 113.817C158.96 113.777 159.036 113.752 159.115 113.744C159.195 113.735 159.275 113.743 159.351 113.766C159.427 113.791 159.498 113.83 159.558 113.883C159.618 113.936 159.666 114 159.7 114.072C159.733 114.144 159.752 114.224 159.754 114.303C159.756 114.383 159.741 114.463 159.71 114.536C159.652 114.767 157.983 120.179 155.248 121.878C155.161 121.933 155.062 121.963 154.959 121.965Z" fill="#282928"/>
<path d="M252.877 102.184C243.518 102.177 234.545 98.4556 227.926 91.8376C221.309 85.2197 217.587 76.2461 217.58 66.8869C217.58 47.4532 233.414 31.6182 252.877 31.6182C262.229 31.6258 271.195 35.344 277.808 41.9565C284.42 48.569 288.138 57.5354 288.146 66.8869C288.146 86.3495 272.339 102.184 252.877 102.184ZM252.877 32.7698C234.048 32.7698 218.732 48.0865 218.732 66.8869C218.739 75.9407 222.339 84.6214 228.741 91.0233C235.143 97.4253 243.824 101.025 252.877 101.033C271.706 101.033 286.995 85.7161 286.995 66.8869C286.987 57.8408 283.39 49.1675 276.994 42.7709C270.597 36.3743 261.924 32.7775 252.877 32.7698Z" fill="#282928"/>
<path d="M243.319 77.6263C243.158 77.6256 243.003 77.5639 242.886 77.4535C242.789 77.3346 242.738 77.1843 242.744 77.0307C242.749 76.8771 242.81 76.7306 242.915 76.6187L252.906 67.1465C253.219 66.8334 253.395 66.4088 253.395 65.966C253.28 60.1503 252.934 50.8796 252.33 49.181C252.303 49.1092 252.29 49.0327 252.293 48.9559C252.295 48.8791 252.313 48.8037 252.345 48.7338C252.377 48.6641 252.423 48.6015 252.48 48.5497C252.537 48.498 252.603 48.4581 252.676 48.4324C252.824 48.3862 252.985 48.3993 253.125 48.4691C253.265 48.5388 253.371 48.6598 253.424 48.8067C254.287 51.2827 254.518 65.3326 254.547 65.9373C254.546 66.3181 254.468 66.695 254.32 67.0458C254.171 67.3968 253.955 67.7147 253.683 67.9814L243.721 77.4535C243.615 77.562 243.47 77.6241 243.319 77.6263Z" fill="#282928"/>
<path d="M235.746 91.7339C235.594 91.7318 235.45 91.6697 235.343 91.5612C226.303 82.5784 222.07 73.3654 222.762 64.1811C223.799 50.3904 235.804 41.4653 235.919 41.3788C236.041 41.2872 236.195 41.2479 236.346 41.2694C236.497 41.2911 236.634 41.3718 236.725 41.494C236.774 41.5529 236.811 41.6215 236.832 41.6953C236.854 41.7692 236.859 41.8467 236.847 41.9228C236.836 41.9988 236.81 42.0717 236.769 42.1368C236.729 42.2017 236.674 42.2574 236.61 42.3001C236.495 42.3866 224.921 51.0237 223.913 64.2676C223.251 73.1063 227.368 82.0315 236.149 90.7551C236.205 90.8063 236.25 90.8686 236.28 90.938C236.311 91.0074 236.327 91.0823 236.327 91.1582C236.327 91.2339 236.311 91.309 236.28 91.3783C236.25 91.4477 236.205 91.51 236.149 91.5612C236.043 91.6697 235.898 91.7318 235.746 91.7339Z" fill="#282928"/>
<path d="M252.733 44.4586C252.091 44.4586 251.476 44.2038 251.023 43.7503C250.57 43.2968 250.314 42.6816 250.314 42.0402V39.4779C250.278 39.14 250.312 38.7982 250.416 38.4747C250.52 38.1511 250.691 37.8531 250.917 37.6001C251.144 37.347 251.422 37.1446 251.733 37.006C252.043 36.8676 252.378 36.7959 252.719 36.7959C253.058 36.7959 253.394 36.8676 253.705 37.006C254.015 37.1446 254.293 37.347 254.519 37.6001C254.746 37.8531 254.917 38.1511 255.02 38.4747C255.125 38.7982 255.16 39.14 255.122 39.4779V42.0402C255.122 42.6766 254.872 43.2874 254.425 43.7402C253.977 44.193 253.369 44.4511 252.733 44.4586ZM252.733 38.211C252.396 38.211 252.074 38.3445 251.837 38.5821C251.599 38.8197 251.466 39.1419 251.466 39.4779V42.0402C251.439 42.2206 251.451 42.4047 251.501 42.5801C251.552 42.7555 251.639 42.918 251.758 43.0563C251.877 43.1947 252.024 43.3057 252.19 43.3819C252.356 43.458 252.536 43.4975 252.719 43.4975C252.901 43.4975 253.082 43.458 253.247 43.3819C253.413 43.3057 253.561 43.1947 253.679 43.0563C253.798 42.918 253.886 42.7555 253.936 42.5801C253.987 42.4047 253.999 42.2206 253.971 42.0402V39.4779C253.971 39.1467 253.841 38.8288 253.61 38.592C253.379 38.3554 253.063 38.2185 252.733 38.211Z" fill="#282928"/>
<path d="M254.547 96.6856C253.913 96.6856 253.305 96.4339 252.857 95.9857C252.409 95.5376 252.158 94.9297 252.158 94.296V91.7048C252.223 91.1125 252.503 90.5652 252.948 90.1674C253.391 89.7698 253.965 89.5498 254.561 89.5498C255.157 89.5498 255.732 89.7698 256.175 90.1674C256.62 90.5652 256.9 91.1125 256.965 91.7048V94.296C256.965 94.6122 256.902 94.9253 256.78 95.2171C256.659 95.509 256.48 95.7736 256.256 95.996C256.03 96.2182 255.764 96.3937 255.47 96.512C255.177 96.6304 254.863 96.6894 254.547 96.6856ZM254.547 90.4668C254.218 90.4668 253.904 90.5972 253.671 90.8294C253.44 91.0616 253.309 91.3765 253.309 91.7048V94.296C253.309 94.6243 253.44 94.9392 253.671 95.1714C253.904 95.4036 254.218 95.534 254.547 95.534C254.878 95.534 255.196 95.4046 255.432 95.1732C255.669 94.9418 255.806 94.6269 255.814 94.296V91.7048C255.806 91.3738 255.669 91.0589 255.432 90.8276C255.196 90.5963 254.878 90.4667 254.547 90.4668Z" fill="#282928"/>
<path d="M233.357 70.1405H230.794C230.153 70.1405 229.538 69.8857 229.084 69.4322C228.631 68.9787 228.377 68.3635 228.377 67.7221C228.377 67.0806 228.631 66.4656 229.084 66.012C229.538 65.5585 230.153 65.3037 230.794 65.3037H233.357C233.999 65.3037 234.614 65.5585 235.067 66.012C235.521 66.4656 235.775 67.0806 235.775 67.7221C235.775 68.3635 235.521 68.9787 235.067 69.4322C234.614 69.8857 233.999 70.1405 233.357 70.1405ZM230.794 66.4553C230.459 66.4553 230.137 66.5888 229.899 66.8264C229.662 67.0639 229.528 67.3861 229.528 67.7221C229.528 68.0581 229.662 68.3802 229.899 68.6178C230.137 68.8554 230.459 68.9889 230.794 68.9889H233.357C233.693 68.9889 234.015 68.8554 234.253 68.6178C234.49 68.3802 234.624 68.0581 234.624 67.7221C234.624 67.3861 234.49 67.0639 234.253 66.8264C234.015 66.5888 233.693 66.4553 233.357 66.4553H230.794Z" fill="#282928"/>
<path d="M280.746 69.5643H278.184C277.543 69.5643 276.928 69.3096 276.474 68.856C276.021 68.4025 275.766 67.7873 275.766 67.1459C275.766 66.5045 276.021 65.8894 276.474 65.4358C276.928 64.9823 277.543 64.7275 278.184 64.7275H280.746C281.388 64.7275 282.003 64.9823 282.456 65.4358C282.911 65.8894 283.165 66.5045 283.165 67.1459C283.165 67.7873 282.911 68.4025 282.456 68.856C282.003 69.3096 281.388 69.5643 280.746 69.5643ZM278.184 65.8791C277.849 65.8791 277.526 66.0126 277.289 66.2502C277.051 66.4877 276.918 66.81 276.918 67.1459C276.918 67.4819 277.051 67.8041 277.289 68.0417C277.526 68.2793 277.849 68.4128 278.184 68.4128H280.746C281.083 68.4128 281.405 68.2793 281.642 68.0417C281.88 67.8041 282.013 67.4819 282.013 67.1459C282.013 66.81 281.88 66.4877 281.642 66.2502C281.405 66.0126 281.083 65.8791 280.746 65.8791H278.184Z" fill="#282928"/>
<path d="M147.963 200.794C147.963 200.794 142.867 208.711 139.815 211.618L147.963 200.794Z" fill="white"/>
<path d="M139.816 212.195C139.733 212.198 139.65 212.181 139.575 212.146C139.5 212.111 139.435 212.058 139.384 211.993C139.33 211.939 139.287 211.875 139.259 211.805C139.231 211.735 139.218 211.659 139.221 211.584C139.223 211.507 139.241 211.433 139.275 211.365C139.308 211.297 139.354 211.236 139.412 211.187C142.378 208.365 147.416 200.563 147.473 200.477C147.517 200.414 147.572 200.361 147.636 200.319C147.7 200.278 147.772 200.25 147.847 200.237C147.922 200.223 147.999 200.224 148.073 200.241C148.147 200.258 148.218 200.288 148.28 200.332C148.404 200.415 148.49 200.542 148.523 200.687C148.554 200.831 148.53 200.983 148.452 201.11C148.223 201.427 143.271 209.114 140.19 212.022C140.142 212.075 140.085 212.117 140.02 212.147C139.956 212.176 139.886 212.193 139.816 212.195Z" fill="#282928"/>
<path d="M165.238 83.9311C165.397 83.3586 165.323 82.746 165.031 82.2279C164.74 81.7098 164.255 81.3284 163.683 81.1672C156.859 79.2383 137.224 72.3573 135.842 57.0694C134.144 38.528 149.259 59.6029 158.184 55.3995C167.109 51.196 190.084 40.4283 192.905 56.4648C192.976 56.8696 193.159 57.2464 193.435 57.5519C193.709 57.8574 194.065 58.0793 194.461 58.1922C199.614 59.7181 216.946 66.8006 209.258 91.388C203.069 111.254 199.844 123.029 198.434 128.385C198.164 129.406 197.563 130.309 196.723 130.95C195.884 131.591 194.854 131.935 193.798 131.926C187.723 131.897 176.034 131.494 172.608 128.729C172.356 128.53 172.153 128.276 172.014 127.987C171.874 127.698 171.801 127.381 171.802 127.06L171.658 115.083C171.647 114.648 171.764 114.22 171.994 113.851C172.224 113.483 172.558 113.19 172.953 113.01C176.034 111.628 183.088 107.54 179.546 100.716C176.524 94.9292 173.53 97.4052 171.859 99.6509C171.665 99.9151 171.414 100.133 171.124 100.288C170.835 100.443 170.515 100.532 170.188 100.549C169.859 100.565 169.532 100.509 169.229 100.383C168.925 100.258 168.654 100.067 168.433 99.8237C166.044 97.2037 162.819 91.9062 165.238 83.9311Z" fill="#282928"/>
<path d="M205.862 87.6742H205.632C205.494 87.6057 205.387 87.4871 205.333 87.3427C205.28 87.1982 205.283 87.0387 205.343 86.8969C210.842 75.5245 199.383 66.5993 199.268 66.513C199.146 66.4175 199.067 66.2774 199.048 66.1236C199.03 65.9697 199.072 65.8147 199.168 65.6925C199.263 65.5702 199.404 65.491 199.557 65.4721C199.711 65.4532 199.866 65.4962 199.988 65.5917C202.122 67.3526 203.951 69.4537 205.401 71.8104C208.51 76.9065 208.827 82.2903 206.38 87.3575C206.334 87.4556 206.261 87.5381 206.169 87.5944C206.076 87.6507 205.969 87.6786 205.862 87.6742Z" fill="white"/>
<path d="M195.957 122.425H195.814C195.739 122.405 195.669 122.37 195.608 122.323C195.548 122.276 195.498 122.217 195.46 122.149C195.422 122.082 195.399 122.009 195.39 121.932C195.382 121.856 195.389 121.778 195.41 121.705L197.714 113.759C197.76 113.614 197.861 113.494 197.997 113.423C198.131 113.353 198.288 113.339 198.434 113.385C198.572 113.431 198.687 113.528 198.757 113.656C198.826 113.784 198.845 113.934 198.808 114.075L196.533 122.051C196.483 122.162 196.402 122.256 196.301 122.322C196.198 122.388 196.079 122.424 195.957 122.425Z" fill="white"/>
<path d="M158.472 75.2939H158.27C158.011 75.1787 151.965 72.9618 144.566 65.8793C144.454 65.7706 144.389 65.6231 144.384 65.4676C144.379 65.3121 144.434 65.1605 144.537 65.0443C144.588 64.9885 144.65 64.9439 144.72 64.9134C144.789 64.8828 144.865 64.8672 144.94 64.8672C145.016 64.8672 145.09 64.8828 145.16 64.9134C145.23 64.9439 145.292 64.9885 145.343 65.0443C152.57 71.9542 158.587 74.171 158.645 74.1998C158.791 74.2522 158.912 74.3594 158.982 74.4989C159.052 74.6384 159.064 74.7994 159.019 74.9484C158.97 75.0518 158.893 75.1393 158.795 75.2005C158.698 75.2616 158.587 75.294 158.472 75.2939Z" fill="white"/>
<path d="M211.188 138.461C211.188 138.461 212.253 127.175 198.002 130.026C183.75 132.876 164.345 141.226 164.345 144.105C164.345 146.062 163.51 149.719 162.992 151.849C162.949 151.998 162.95 152.157 162.995 152.306C163.04 152.455 163.127 152.587 163.246 152.688C163.365 152.788 163.509 152.852 163.664 152.872C163.818 152.892 163.975 152.866 164.114 152.799C171.37 149.431 201.744 135.899 211.188 138.461Z" fill="white"/>
<path d="M163.77 153.433C163.442 153.444 163.124 153.33 162.877 153.117C162.679 152.945 162.531 152.723 162.451 152.475C162.37 152.226 162.357 151.961 162.416 151.705C162.934 149.69 163.77 146.033 163.77 144.105C163.77 142.175 170.218 138.807 175.603 136.533C182.944 133.423 191.264 130.803 197.887 129.479C202.896 128.472 206.638 129.047 209.057 131.235C212.138 133.999 211.792 138.346 211.763 138.519L211.706 139.211L211.044 139.038C201.687 136.475 170.506 150.467 164.345 153.318C164.164 153.399 163.968 153.439 163.77 153.433ZM202.234 130.141C200.849 130.152 199.47 130.306 198.117 130.601C191.552 131.898 183.318 134.518 176.063 137.569C167.944 140.995 164.92 143.413 164.92 144.105C164.92 146.033 164.172 149.46 163.539 151.993C163.526 152.036 163.528 152.082 163.543 152.123C163.558 152.165 163.588 152.201 163.625 152.224C163.654 152.281 163.74 152.31 163.885 152.281C172.406 148.337 200.449 135.928 210.641 137.741C210.612 136.533 210.295 133.884 208.28 132.069C206.841 130.803 204.825 130.141 202.234 130.141Z" fill="#282928"/>
<path d="M251.667 228.95C251.38 219.68 248.04 146.983 215.276 137.367C213.653 136.882 211.95 136.725 210.267 136.906C206.207 137.28 197.31 138.374 188.184 141.225C179.057 144.074 170.017 148.94 164.662 152.424C163.974 152.874 163.187 153.147 162.369 153.222C161.551 153.298 160.727 153.173 159.969 152.856C155.91 151.186 147.157 149.344 138.634 159.046C127.004 172.29 77.1665 219.334 83.2125 234.334C92.8287 258.259 123.088 227.568 137.685 213.634C137.927 213.403 138.223 213.237 138.546 213.152C138.869 213.066 139.208 213.063 139.532 213.144C139.858 213.224 140.155 213.385 140.401 213.611C140.647 213.838 140.832 214.123 140.938 214.44C143.961 223.624 153.634 247.52 152.08 254.315C150.266 262.434 232.464 248.499 250.976 230.62C251.201 230.405 251.379 230.145 251.498 229.858C251.617 229.57 251.675 229.261 251.667 228.95Z" fill="white"/>
<path d="M160.027 257.253C156.428 257.253 153.865 256.907 152.598 256.187C151.332 255.467 151.418 254.661 151.534 254.201C152.714 248.989 146.87 232.809 143.011 222.07C141.946 219.104 141.025 216.542 140.391 214.614C140.315 214.387 140.183 214.184 140.006 214.023C139.83 213.861 139.616 213.747 139.384 213.692C139.157 213.629 138.917 213.628 138.689 213.689C138.462 213.75 138.254 213.869 138.089 214.037C137.426 214.671 136.706 215.333 135.986 216.052C125.046 226.59 107.167 243.749 94.4989 243.749C93.6172 243.758 92.7377 243.662 91.879 243.462C87.7906 242.597 84.71 239.603 82.6659 234.536C77.6275 221.983 109.384 188.932 128.329 169.152C132.474 164.863 136.044 161.12 138.203 158.673C146.841 148.826 155.679 150.467 160.199 152.339C160.872 152.611 161.6 152.717 162.322 152.647C163.044 152.577 163.738 152.333 164.345 151.935C169.931 148.308 179.087 143.442 188.011 140.679C196.936 137.914 205.805 136.734 210.238 136.331C211.99 136.16 213.759 136.325 215.449 136.82C223.107 139.066 229.758 144.882 235.228 154.153C239.662 161.61 243.377 171.398 246.198 183.173C251.236 203.932 252.1 224.921 252.244 228.922C252.259 229.314 252.189 229.704 252.041 230.067C251.891 230.43 251.667 230.756 251.38 231.024C247.292 234.968 240.037 238.913 229.787 242.77C221.006 246.053 210.295 249.162 198.78 251.754C183.203 255.266 168.693 257.253 160.027 257.253ZM139.038 212.483C139.253 212.483 139.465 212.512 139.672 212.569C140.093 212.675 140.481 212.886 140.798 213.184C141.115 213.481 141.352 213.854 141.485 214.268C142.119 216.168 143.04 218.73 144.105 221.696C148.223 233.183 153.895 248.903 152.656 254.43C152.628 254.575 152.57 254.862 153.175 255.208C157.177 257.454 177.1 255.439 198.549 250.63C223.741 244.959 243.204 237.329 250.574 230.217C250.742 230.053 250.875 229.856 250.964 229.638C251.053 229.42 251.096 229.187 251.092 228.951C250.833 220.66 247.58 147.473 215.104 137.914C213.556 137.451 211.93 137.303 210.325 137.482C205.948 137.886 197.282 139.008 188.357 141.773C179.431 144.536 170.507 149.315 164.978 152.914C164.214 153.408 163.341 153.711 162.433 153.797C161.526 153.881 160.612 153.747 159.768 153.404C155.536 151.647 147.244 150.121 139.067 159.421C136.879 161.897 133.309 165.64 129.163 169.959C111.63 188.24 78.9806 222.243 83.7311 234.104C85.6313 238.797 88.424 241.561 92.1092 242.339C104.259 244.959 123.636 226.331 135.18 215.218L137.282 213.203C137.755 212.749 138.383 212.492 139.038 212.483Z" fill="#282928"/>
<path d="M280.545 60.8409C280.412 60.8491 280.281 60.8058 280.179 60.7201C280.077 60.6343 280.012 60.5126 279.998 60.3803C276.918 44.8621 263.04 39.9676 262.896 39.9388C262.823 39.9131 262.757 39.8733 262.7 39.8215C262.644 39.7697 262.598 39.7071 262.565 39.6373C262.534 39.5676 262.515 39.4921 262.513 39.4153C262.51 39.3385 262.524 39.262 262.551 39.1903C262.573 39.1189 262.61 39.0528 262.659 38.9963C262.708 38.9398 262.769 38.8939 262.836 38.8615C262.903 38.8292 262.976 38.811 263.051 38.808C263.126 38.8052 263.201 38.8177 263.271 38.8447C263.414 38.9024 266.985 40.1404 270.986 43.3649C276.245 47.596 279.835 53.5527 281.12 60.1788C281.146 60.3275 281.112 60.4802 281.026 60.604C280.939 60.7279 280.808 60.8128 280.66 60.8409H280.545Z" fill="#282928"/>
<path d="M268.193 92.4824C268.075 92.4801 267.962 92.4434 267.864 92.3769C267.767 92.3104 267.691 92.2171 267.646 92.1082C267.619 92.0385 267.607 91.9638 267.61 91.889C267.613 91.8143 267.631 91.7409 267.663 91.6734C267.695 91.606 267.741 91.5459 267.798 91.4968C267.855 91.4478 267.921 91.4109 267.992 91.3884C272.512 89.7185 275.823 83.0967 275.852 83.039C275.92 82.9016 276.041 82.7971 276.186 82.7485C276.333 82.6999 276.491 82.7112 276.629 82.78C276.767 82.8487 276.871 82.9692 276.919 83.115C276.968 83.2608 276.957 83.4199 276.888 83.5573C276.745 83.8452 273.347 90.6398 268.395 92.4537L268.193 92.4824Z" fill="#282928"/>
<path d="M94.2105 184.671C94.0847 184.669 93.9631 184.625 93.8642 184.547C93.7654 184.469 93.695 184.361 93.6635 184.239C93.6421 184.165 93.6366 184.087 93.6472 184.011C93.6578 183.936 93.6843 183.863 93.7251 183.797C93.7658 183.731 93.8199 183.675 93.8837 183.633C93.9475 183.59 94.0196 183.562 94.0953 183.548L121.332 176.61C121.405 176.592 121.481 176.59 121.557 176.602C121.631 176.615 121.702 176.642 121.767 176.682C121.831 176.722 121.886 176.774 121.931 176.836C121.974 176.897 122.006 176.967 122.022 177.042C122.058 177.186 122.035 177.34 121.96 177.468C121.885 177.597 121.763 177.691 121.62 177.732L94.3545 184.642L94.2105 184.671Z" fill="#282928"/>
<path d="M118.021 232.032C117.866 232.024 117.72 231.957 117.612 231.845C117.505 231.732 117.445 231.583 117.445 231.427C117.992 220.487 114.336 190.256 113.731 185.448L99.4221 188.903C99.3484 188.92 99.272 188.922 99.1974 188.91C99.1228 188.897 99.0513 188.87 98.9872 188.83C98.9229 188.79 98.8673 188.737 98.8234 188.676C98.7795 188.614 98.7481 188.545 98.7312 188.471C98.7098 188.397 98.7042 188.319 98.7148 188.243C98.7255 188.167 98.752 188.095 98.7928 188.029C98.8335 187.963 98.8875 187.908 98.9514 187.865C99.0151 187.822 99.0873 187.793 99.163 187.779L114.71 184.037L114.797 184.671C114.825 185.016 119.172 219.536 118.597 231.484C118.597 231.559 118.582 231.632 118.552 231.7C118.524 231.769 118.48 231.831 118.426 231.881C118.372 231.933 118.309 231.973 118.239 231.998C118.169 232.024 118.095 232.035 118.021 232.032Z" fill="#282928"/>
<path d="M183.664 142.779C183.664 142.779 215.334 201.023 206.754 249.248L183.664 142.779Z" fill="white"/>
<path d="M206.754 249.824H206.639C206.491 249.796 206.36 249.71 206.273 249.586C206.187 249.463 206.153 249.31 206.178 249.161C210.583 224.373 204.105 196.849 197.887 178.106C191.149 157.809 183.261 143.212 183.175 143.067C183.101 142.929 183.084 142.768 183.127 142.618C183.17 142.467 183.269 142.34 183.404 142.261C183.54 142.197 183.694 142.185 183.838 142.226C183.981 142.269 184.104 142.364 184.182 142.492C184.269 142.665 192.185 157.347 198.981 177.761C205.228 196.59 211.763 224.315 207.301 249.363C207.287 249.496 207.222 249.617 207.119 249.703C207.018 249.789 206.887 249.832 206.754 249.824Z" fill="#282928"/>
<path d="M205.948 137.396C205.948 137.396 241.217 188.068 237.1 239.142L205.948 137.396Z" fill="white"/>
<path d="M237.1 239.719H237.07C236.921 239.703 236.781 239.634 236.68 239.522C236.579 239.411 236.523 239.264 236.523 239.114C238.654 212.828 230.103 186.685 222.56 169.353C214.355 150.581 205.574 137.856 205.487 137.741C205.443 137.679 205.412 137.609 205.396 137.534C205.379 137.46 205.378 137.383 205.391 137.308C205.404 137.233 205.433 137.161 205.473 137.097C205.515 137.033 205.569 136.978 205.631 136.935C205.69 136.888 205.757 136.853 205.83 136.834C205.903 136.816 205.979 136.814 206.053 136.827C206.127 136.84 206.197 136.871 206.258 136.913C206.32 136.957 206.371 137.014 206.409 137.079C206.523 137.194 215.362 150.006 223.596 168.893C231.197 186.311 239.806 212.683 237.675 239.2C237.661 239.342 237.594 239.475 237.487 239.57C237.381 239.666 237.243 239.719 237.1 239.719Z" fill="#282928"/>
<path d="M159.969 152.856C159.969 152.856 182.425 212.77 175.084 255.467L159.969 152.856Z" fill="white"/>
<path d="M175.084 256.043H174.998C174.921 256.032 174.848 256.007 174.782 255.967C174.717 255.929 174.659 255.877 174.613 255.815C174.568 255.753 174.535 255.683 174.517 255.608C174.499 255.534 174.496 255.457 174.509 255.381C178.279 233.414 173.99 206.782 169.729 188.298C165.093 168.231 159.508 153.203 159.451 153.058C159.41 152.986 159.386 152.906 159.38 152.823C159.372 152.741 159.384 152.658 159.412 152.579C159.441 152.502 159.485 152.431 159.543 152.372C159.601 152.313 159.671 152.267 159.75 152.239C159.827 152.209 159.909 152.197 159.993 152.202C160.075 152.208 160.155 152.232 160.228 152.271C160.301 152.311 160.364 152.366 160.413 152.432C160.463 152.498 160.498 152.574 160.516 152.655C160.573 152.799 166.187 167.914 170.852 188.01C175.142 206.609 179.46 233.414 175.659 255.582C175.633 255.714 175.561 255.833 175.455 255.917C175.35 256.001 175.218 256.046 175.084 256.043Z" fill="#282928"/>
<path d="M135.9 162.04C135.9 162.04 146.063 199.698 143.874 222.703L135.9 162.04Z" fill="white"/>
<path d="M143.874 223.279H143.817C143.741 223.271 143.668 223.25 143.601 223.213C143.534 223.178 143.474 223.129 143.426 223.07C143.378 223.011 143.342 222.944 143.32 222.871C143.298 222.797 143.291 222.721 143.299 222.645C145.43 200.016 135.468 162.559 135.353 162.185C135.317 162.039 135.34 161.887 135.415 161.758C135.49 161.629 135.612 161.534 135.756 161.493C135.83 161.472 135.907 161.465 135.983 161.473C136.06 161.482 136.134 161.506 136.201 161.543C136.268 161.581 136.327 161.632 136.374 161.693C136.421 161.753 136.456 161.823 136.476 161.897C136.563 162.271 146.61 199.929 144.451 222.761C144.437 222.903 144.37 223.035 144.263 223.131C144.156 223.226 144.018 223.279 143.874 223.279Z" fill="#282928"/>
<path d="M94.2107 242.915H94.0956C93.9527 242.88 93.8284 242.793 93.7481 242.67C93.6677 242.546 93.6375 242.397 93.6637 242.253C95.9669 231.168 93.2894 209.863 93.2607 209.632C93.2485 209.559 93.2517 209.482 93.27 209.409C93.2884 209.337 93.3217 209.269 93.3676 209.209C93.4135 209.15 93.4711 209.1 93.5369 209.065C93.6028 209.028 93.6753 209.006 93.7501 208.999C93.8258 208.986 93.9032 208.989 93.9777 209.008C94.0522 209.026 94.1225 209.059 94.1842 209.104C94.2458 209.15 94.2978 209.207 94.337 209.273C94.3762 209.339 94.4018 209.412 94.4122 209.489C94.4987 210.381 97.1186 231.196 94.7866 242.482C94.7539 242.61 94.6791 242.721 94.5744 242.8C94.4698 242.878 94.3415 242.919 94.2107 242.915Z" fill="#282928"/>
<path d="M106.418 150.985C105.466 150.979 104.547 150.637 103.82 150.022C103.094 149.406 102.607 148.555 102.445 147.617L101.523 142.117C101.348 141.068 101.595 139.992 102.209 139.123C102.824 138.255 103.758 137.664 104.806 137.481L135.842 132.213C136.364 132.123 136.899 132.137 137.415 132.255C137.933 132.373 138.421 132.591 138.852 132.899C139.283 133.207 139.649 133.599 139.928 134.049C140.207 134.5 140.393 135.001 140.478 135.524L141.427 141.023C141.602 142.077 141.352 143.156 140.731 144.026C140.111 144.895 139.17 145.483 138.117 145.658L107.109 150.927L106.418 150.985ZM136.505 133.307H136.044L105.007 138.605C104.633 138.668 104.275 138.805 103.954 139.007C103.633 139.211 103.354 139.475 103.135 139.785C102.707 140.407 102.533 141.169 102.646 141.915L103.596 147.444C103.659 147.815 103.794 148.17 103.996 148.489C104.196 148.807 104.458 149.083 104.765 149.3C105.073 149.517 105.421 149.67 105.789 149.752C106.157 149.834 106.536 149.842 106.907 149.776L137.915 144.536C138.292 144.476 138.653 144.343 138.977 144.142C139.301 143.94 139.582 143.676 139.802 143.365C140.022 143.054 140.177 142.701 140.259 142.329C140.34 141.956 140.345 141.57 140.276 141.196L139.354 135.697C139.239 135.026 138.889 134.417 138.367 133.98C137.846 133.543 137.186 133.304 136.505 133.307Z" fill="white"/>
<path d="M107.858 142.146C107.719 142.148 107.583 142.099 107.478 142.009C107.372 141.919 107.303 141.794 107.281 141.657C107.269 141.581 107.272 141.504 107.291 141.429C107.309 141.354 107.341 141.284 107.387 141.223C107.433 141.161 107.49 141.109 107.556 141.069C107.622 141.031 107.695 141.005 107.772 140.994L129.508 137.568C129.58 137.556 129.654 137.559 129.724 137.575C129.796 137.591 129.863 137.622 129.922 137.666C129.981 137.708 130.03 137.762 130.068 137.825C130.107 137.887 130.131 137.956 130.141 138.029C130.167 138.178 130.133 138.331 130.047 138.455C129.96 138.579 129.829 138.663 129.681 138.691L107.943 142.146H107.858Z" fill="white"/>
<path d="M108.98 146.781C108.845 146.782 108.714 146.732 108.613 146.642C108.512 146.551 108.448 146.427 108.433 146.292C108.421 146.22 108.423 146.147 108.441 146.076C108.457 146.004 108.487 145.937 108.531 145.878C108.574 145.819 108.628 145.77 108.691 145.732C108.753 145.694 108.822 145.669 108.894 145.659L129.509 142.55C129.657 142.532 129.806 142.574 129.925 142.666C130.043 142.757 130.121 142.891 130.142 143.039C130.168 143.187 130.133 143.34 130.047 143.464C129.961 143.588 129.829 143.673 129.682 143.701L109.067 146.781H108.98Z" fill="white"/>
<path d="M104.058 124.008C103.914 124.009 103.776 123.956 103.669 123.861C103.563 123.765 103.495 123.633 103.481 123.489C103.469 123.416 103.472 123.34 103.49 123.267C103.51 123.195 103.542 123.127 103.588 123.067C103.635 123.008 103.692 122.958 103.758 122.922C103.824 122.886 103.896 122.863 103.971 122.856L132.387 119.027C132.54 119.01 132.692 119.051 132.815 119.142C132.937 119.233 133.021 119.367 133.05 119.516C133.059 119.672 133.011 119.824 132.916 119.946C132.82 120.068 132.684 120.151 132.531 120.179L104.115 124.008H104.058Z" fill="white"/>
<path d="M107.858 130.169C107.715 130.17 107.576 130.117 107.47 130.022C107.363 129.926 107.297 129.794 107.282 129.652C107.27 129.577 107.273 129.501 107.292 129.429C107.31 129.356 107.343 129.288 107.389 129.228C107.435 129.169 107.493 129.12 107.558 129.083C107.624 129.047 107.696 129.024 107.771 129.018L128.098 126.398C128.178 126.372 128.263 126.364 128.348 126.375C128.431 126.385 128.511 126.415 128.584 126.459C128.655 126.505 128.715 126.566 128.761 126.637C128.806 126.708 128.835 126.789 128.846 126.873C128.856 126.957 128.849 127.042 128.823 127.122C128.797 127.203 128.753 127.277 128.695 127.339C128.639 127.401 128.567 127.449 128.489 127.48C128.411 127.512 128.326 127.526 128.242 127.521L107.916 130.141L107.858 130.169Z" fill="white"/>
<path d="M118.712 117.366C122.846 116.844 126.009 114.938 125.778 113.108C125.546 111.278 122.008 110.217 117.875 110.74C113.741 111.261 110.579 113.169 110.809 114.999C111.041 116.828 114.579 117.888 118.712 117.366Z" fill="white"/>
<path d="M57.56 158.184L75.3814 203.529C75.5314 203.911 75.5894 204.323 75.5511 204.732C75.5127 205.139 75.3788 205.534 75.1603 205.881C74.9418 206.228 74.6447 206.52 74.2931 206.731C73.9414 206.943 73.545 207.069 73.1358 207.098L40.2566 209.517C39.6828 209.56 39.111 209.411 38.6314 209.093C38.1518 208.775 37.7917 208.306 37.6079 207.761L21.1971 160.199L57.56 158.184Z" fill="white"/>
<path d="M40.0841 210.122C39.418 210.122 38.7685 209.913 38.2265 209.526C37.6845 209.138 37.2771 208.592 37.061 207.962L20.4199 159.68L57.9631 157.578L75.9286 203.327C76.1103 203.791 76.1789 204.291 76.1289 204.787C76.0788 205.282 75.9114 205.759 75.6407 206.177C75.3777 206.6 75.0194 206.956 74.5945 207.216C74.1697 207.475 73.6898 207.633 73.1935 207.674L40.3144 210.092L40.0841 210.122ZM22.0034 160.745L38.1551 207.588C38.3008 208.012 38.5838 208.375 38.9592 208.62C39.3347 208.865 39.7812 208.978 40.2279 208.941L73.1071 206.522C73.4221 206.495 73.7264 206.395 73.9961 206.23C74.2659 206.065 74.4938 205.84 74.6618 205.572C74.8379 205.303 74.9458 204.993 74.9759 204.672C75.006 204.351 74.9575 204.028 74.8346 203.73L57.1857 158.787L22.0034 160.745Z" fill="#282928"/>
<path d="M36.9594 160.431C37.0928 160.906 37.5794 161.184 38.0462 161.053C38.5132 160.922 38.7835 160.431 38.6501 159.956L38.0689 157.888C37.9355 157.413 37.4489 157.136 36.9821 157.267C36.5151 157.398 36.2448 157.889 36.3782 158.364L36.9594 160.431Z" fill="#282928"/>
<path d="M32.4557 160.934C32.5891 161.407 33.0757 161.686 33.5426 161.555C34.0095 161.424 34.2798 160.933 34.1465 160.458L33.5652 158.39C33.4318 157.916 32.9453 157.638 32.4784 157.769C32.0115 157.9 31.7411 158.391 31.8745 158.866L32.4557 160.934Z" fill="#282928"/>
<path d="M28.3354 161.461C28.4685 161.934 28.9537 162.211 29.4193 162.081C29.8849 161.95 30.1544 161.46 30.0213 160.987L29.4414 158.925C29.3083 158.451 28.823 158.174 28.3574 158.305C27.8919 158.436 27.6223 158.926 27.7555 159.399L28.3354 161.461Z" fill="#282928"/>
<path d="M38.1837 161.004C38.4035 160.931 38.5878 160.778 38.7 160.575C38.812 160.373 38.8435 160.135 38.7883 159.91" fill="#282928"/>
<path d="M32.4557 160.934C32.5891 161.407 33.0757 161.686 33.5426 161.555C34.0095 161.424 34.2798 160.933 34.1465 160.458L33.5652 158.39C33.4318 157.916 32.9453 157.638 32.4784 157.769C32.0115 157.9 31.7411 158.391 31.8745 158.866L32.4557 160.934Z" fill="#282928"/>
<path d="M28.3354 161.461C28.4685 161.934 28.9537 162.211 29.4193 162.081C29.8849 161.95 30.1544 161.46 30.0213 160.987L29.4414 158.925C29.3083 158.451 28.823 158.174 28.3574 158.305C27.8919 158.436 27.6223 158.926 27.7555 159.399L28.3354 161.461Z" fill="#282928"/>
<path d="M50.031 159.61C50.1644 160.085 50.651 160.363 51.118 160.232C51.5848 160.101 51.8551 159.61 51.7218 159.135L51.1405 157.067C51.0071 156.592 50.5206 156.314 50.0537 156.446C49.5869 156.577 49.3164 157.068 49.4498 157.542L50.031 159.61Z" fill="#282928"/>
<path d="M45.5483 160.083C45.6816 160.558 46.1682 160.836 46.6351 160.705C47.1019 160.574 47.3724 160.083 47.239 159.608L46.6577 157.54C46.5244 157.066 46.0378 156.788 45.5708 156.919C45.104 157.05 44.8336 157.541 44.967 158.016L45.5483 160.083Z" fill="#282928"/>
<path d="M41.4204 160.604C41.5536 161.077 42.0388 161.355 42.5044 161.223C42.97 161.093 43.2395 160.603 43.1064 160.129L42.5265 158.068C42.3935 157.595 41.9081 157.317 41.4426 157.449C40.977 157.58 40.7074 158.069 40.8405 158.542L41.4204 160.604Z" fill="#282928"/>
<path d="M23.7005 161.537C23.8339 162.012 24.3204 162.289 24.7873 162.158C25.2543 162.027 25.5246 161.536 25.3912 161.061L24.81 158.994C24.6766 158.52 24.19 158.241 23.7232 158.372C23.2562 158.503 22.9859 158.994 23.1193 159.469L23.7005 161.537Z" fill="#282928"/>
<path d="M20.2475 207.387C19.9273 207.379 19.6119 207.309 19.3194 207.177C19.0269 207.047 18.7631 206.86 18.5435 206.627C18.3239 206.395 18.1527 206.12 18.04 205.82C17.9272 205.52 17.8751 205.202 17.8866 204.882L20.6505 160.17C20.6542 160.094 20.6727 160.019 20.7052 159.951C20.7376 159.883 20.7832 159.821 20.8394 159.77C20.8955 159.719 20.9612 159.681 21.0324 159.655C21.1038 159.63 21.1794 159.619 21.2551 159.623C21.3296 159.626 21.4026 159.644 21.4696 159.678C21.5366 159.71 21.5963 159.756 21.6448 159.813C21.6933 159.87 21.7298 159.935 21.7518 160.007C21.774 160.078 21.7813 160.153 21.7734 160.227L19.0382 204.939C19.0261 205.109 19.0508 205.278 19.1104 205.438C19.17 205.597 19.2632 205.741 19.3837 205.861C19.501 205.984 19.6449 206.079 19.8045 206.139C19.9641 206.199 20.1353 206.222 20.305 206.206L36.9173 205.284C37.0682 205.284 37.2139 205.339 37.3257 205.441C37.4376 205.543 37.5076 205.682 37.522 205.831C37.5301 205.909 37.522 205.986 37.4981 206.059C37.4743 206.132 37.4352 206.199 37.3836 206.256C37.3319 206.313 37.2689 206.359 37.1985 206.39C37.128 206.421 37.0519 206.436 36.9749 206.436L20.3914 207.357L20.2475 207.387Z" fill="#282928"/>
<path d="M54.2823 159.072C54.4156 159.547 54.9022 159.825 55.3691 159.693C55.8359 159.562 56.1064 159.071 55.973 158.596L55.3918 156.53C55.2584 156.055 54.7718 155.776 54.3048 155.907C53.838 156.039 53.5677 156.53 53.701 157.004L54.2823 159.072Z" fill="#282928"/>
<path d="M42.9058 195.697C42.7669 195.699 42.6322 195.651 42.5264 195.56C42.4205 195.471 42.3508 195.346 42.3299 195.208L39.2493 174.306L36.1975 182.857C36.175 182.928 36.1381 182.994 36.0891 183.051C36.0401 183.107 35.9799 183.153 35.9125 183.185C35.845 183.218 35.7716 183.236 35.6969 183.239C35.6221 183.242 35.5476 183.229 35.4777 183.203C35.333 183.156 35.2125 183.054 35.1423 182.92C35.0723 182.785 35.0582 182.627 35.1035 182.483L38.9039 171.859C38.943 171.732 39.0245 171.623 39.1346 171.549C39.2447 171.476 39.3767 171.443 39.5085 171.456C39.6392 171.47 39.762 171.525 39.8602 171.613C39.9582 171.701 40.0264 171.817 40.0555 171.945L43.4816 195.036C43.4988 195.187 43.4578 195.339 43.367 195.462C43.2763 195.586 43.1423 195.669 42.9922 195.697H42.9058Z" fill="#ECDAFF"/>
<path d="M51.7733 193.768C51.566 193.764 51.3622 193.714 51.1762 193.623C50.9903 193.53 50.827 193.399 50.6978 193.237C50.5686 193.075 50.4767 192.886 50.4287 192.685C50.3807 192.482 50.3779 192.273 50.4202 192.069L51.7158 186.512C52.0325 185.131 52.4644 183.663 52.925 182.108C54.1342 177.933 55.4874 173.211 54.2206 171.34C54.0438 171.083 53.8074 170.873 53.5316 170.728C53.2557 170.582 52.9489 170.506 52.6371 170.505C51.4854 170.362 50.6793 170.62 50.1611 171.225C49.0958 172.463 49.5277 175.111 49.758 176.004C49.7799 176.078 49.7867 176.156 49.7781 176.232C49.7697 176.308 49.7459 176.382 49.7083 176.449C49.6708 176.516 49.6201 176.575 49.5594 176.622C49.4987 176.669 49.4292 176.704 49.3549 176.724C49.2831 176.745 49.2076 176.752 49.1331 176.743C49.0585 176.734 48.9867 176.711 48.9219 176.673C48.857 176.634 48.8007 176.584 48.7564 176.524C48.712 176.463 48.6805 176.394 48.664 176.321C48.6064 176.148 47.6275 172.435 49.2973 170.476C50.0459 169.555 51.2264 169.181 52.7523 169.353C53.8463 169.469 54.6524 169.901 55.1995 170.706C56.7542 173.01 55.3722 177.818 54.0191 182.454C53.5872 183.979 53.1553 185.448 52.8386 186.772L51.5431 192.329C51.5409 192.4 51.5611 192.47 51.6006 192.53C51.6258 192.558 51.657 192.581 51.6918 192.596C51.7267 192.61 51.7643 192.617 51.8022 192.616L63.6064 191.782C63.7604 191.78 63.9097 191.835 64.0263 191.935C64.1429 192.036 64.2188 192.176 64.2398 192.329C64.2405 192.479 64.1847 192.626 64.0835 192.737C63.9823 192.849 63.8429 192.918 63.6927 192.934L51.8598 193.74L51.7733 193.768Z" fill="#ECDAFF"/>
<path d="M59.5179 216.686C59.9511 216.682 60.3807 216.765 60.7811 216.931C61.1813 217.097 61.5442 217.341 61.8479 217.65C62.1515 217.959 62.3897 218.326 62.5484 218.729C62.707 219.132 62.7829 219.563 62.7712 219.996V220.659L62.656 224.603L62.253 237.529L62.1378 242.222L61.9938 246.225C61.9789 246.838 61.7859 247.435 61.4383 247.94C61.0907 248.446 60.6036 248.841 60.036 249.075C55.5735 250.975 43.9996 254.747 32.5985 249.075C32.0881 248.825 31.6552 248.441 31.3459 247.965C31.0367 247.488 30.8625 246.937 30.8422 246.368L29.6618 219.68C29.6499 219.234 29.7289 218.79 29.8939 218.376C30.059 217.963 30.3067 217.587 30.622 217.271C30.9371 216.956 31.3132 216.708 31.7273 216.543C32.1414 216.378 32.5847 216.299 33.0303 216.311L59.5179 216.686Z" fill="#282928"/>
<path d="M46.3605 221.062C55.4397 221.062 62.8 219.734 62.8 218.096C62.8 216.459 55.4397 215.131 46.3605 215.131C37.2812 215.131 29.9209 216.459 29.9209 218.096C29.9209 219.734 37.2812 221.062 46.3605 221.062Z" fill="white"/>
<path d="M46.3605 221.609C41.9268 221.609 37.752 221.322 34.6139 220.746C29.8922 219.91 29.3451 218.817 29.3451 218.097C29.3451 217.377 29.8922 216.283 34.6139 215.448C37.752 214.872 41.9268 214.556 46.3605 214.556C50.7943 214.556 54.9402 214.872 58.0783 215.448C62.8288 216.283 63.3759 217.348 63.3759 218.097C63.3759 218.845 62.8288 219.91 58.0783 220.746C54.9402 221.322 50.7654 221.609 46.3605 221.609ZM46.3605 215.708C42.0995 215.708 38.0976 215.995 35.0457 216.542C31.4756 217.147 30.5255 217.895 30.4968 218.097C30.468 218.298 31.4756 219.047 35.0457 219.651C38.0976 220.17 42.0995 220.457 46.3605 220.457C50.6215 220.457 54.6235 220.17 57.6753 219.651C61.2166 219.047 62.1667 218.298 62.2242 218.097C62.2818 217.895 61.2166 217.147 57.6753 216.542C54.6235 215.995 50.5927 215.708 46.3605 215.708Z" fill="#282928"/>
<path d="M71.4375 232.233C71.4375 237.041 67.7234 240.928 63.1169 240.928C62.5462 240.929 61.977 240.871 61.4182 240.755L61.5334 237.041C64.6715 236.639 67.09 234.479 67.09 231.888C67.09 229.296 64.8155 227.281 61.8213 226.791L61.9076 223.654C62.3082 223.596 62.7123 223.567 63.1169 223.567C67.7234 223.567 71.4375 227.454 71.4375 232.233Z" fill="#282928"/>
<path d="M33.5196 219.335C35.938 218.816 49.8728 216.052 59.4601 219.277C59.483 219.277 59.505 219.286 59.5211 219.302C59.5374 219.319 59.5465 219.341 59.5465 219.363C59.5465 219.387 59.5374 219.408 59.5211 219.424C59.505 219.441 59.483 219.45 59.4601 219.45C57.3519 220.062 55.176 220.409 52.9822 220.487C47.6847 220.688 40.5446 220.947 33.5196 219.478C33.5077 219.471 33.4979 219.46 33.4912 219.448C33.4845 219.434 33.481 219.421 33.481 219.407C33.481 219.393 33.4845 219.379 33.4912 219.365C33.4979 219.353 33.5077 219.343 33.5196 219.335Z" fill="#ECDAFF"/>
</svg>
